<svg width="142" height="36" xmlns="http://www.w3.org/2000/svg" xmlns:xlink="http://www.w3.org/1999/xlink" xml:space="preserve" overflow="hidden"><defs><clipPath id="clip0"><rect x="71" y="91" width="142" height="36"/></clipPath></defs><g clip-path="url(#clip0)" transform="translate(-71 -91)"><path d="M80.0481 4.84418 75.7598 4.84418C75.8977 6.47419 77.251 7.73294 78.8867 7.75267L80.0481 7.75267 80.0481 8.87438 79.0554 8.87438C76.629 8.97866 74.5774 7.0962 74.4732 4.66977 74.4698 4.59229 74.4686 4.51474 74.4693 4.43719 74.4438 2.00866 76.3918 0.0192737 78.8204-0.00622954 78.9154-0.00722643 79.0103-0.00514906 79.1051-6.8175e-07L80.0977 0 80.0977 1.11178 79.2937 1.11178C77.6462 0.99946 76.1644 2.10969 75.8094 3.72247L80.0977 3.72247Z" fill="#FFFFFF" transform="matrix(1 0 0 1.00704 71 91.2262)"/><path d="M80.9216 7.81223 84.0386 7.81223C84.5548 7.81223 84.7632 7.60378 84.7632 7.22656 84.7632 6.10486 80.9216 6.54163 80.9216 4.43719 80.9216 3.35519 81.6661 2.78937 82.9963 2.78937L85.6268 2.78937 85.6268 3.85152 82.8077 3.85152C82.2617 3.85152 82.1128 4.00042 82.0831 4.38756 82.0831 5.43978 85.9246 4.99308 85.9246 7.17693 85.9554 8.09197 85.2385 8.85865 84.3235 8.88937 84.2283 8.89258 84.133 8.88755 84.0386 8.87438L80.9216 8.87438Z" fill="#FFFFFF" transform="matrix(1 0 0 1.00704 71 91.2262)"/><path d="M90.8582 3.85152 89.9946 3.85152C88.8981 3.85152 88.0092 4.74038 88.0092 5.83684 88.0092 6.9333 88.8981 7.82216 89.9946 7.82216L90.8582 7.82216 90.8582 8.87438 89.796 8.87438C88.1157 8.9704 86.6757 7.68607 86.5797 6.00573 86.4836 4.32541 87.768 2.88539 89.4483 2.78937 89.5641 2.78275 89.6802 2.78275 89.796 2.78937L90.8582 2.78937Z" fill="#FFFFFF" transform="matrix(1 0 0 1.00704 71 91.2262)"/><path d="M96.8935 2.78937 96.8935 6.33317C96.8935 7.76954 95.7291 8.93394 94.2928 8.93394 92.8564 8.93394 91.692 7.76954 91.692 6.33317L91.692 2.78937 92.8038 2.78937 92.8038 6.33317C92.8038 7.15552 93.4704 7.82216 94.2928 7.82216 95.1151 7.82216 95.7818 7.15552 95.7818 6.33317L95.7818 2.78937Z" fill="#FFFFFF" transform="matrix(1 0 0 1.00704 71 91.2262)"/><path d="M99.8318 6.86921 99.3752 5.95596 102.353 4.27836C102.005 3.8793 101.493 3.66319 100.963 3.69269 99.8666 3.69072 98.9765 4.57798 98.9745 5.67443 98.9744 5.71536 98.9756 5.75628 98.9781 5.79713 98.9123 6.89162 99.7464 7.83221 100.84 7.898 100.882 7.90045 100.923 7.90164 100.963 7.90157 102.284 7.90157 102.78 7.11737 103.008 6.00559L104.14 6.14457C104.013 7.78637 102.608 9.03277 100.963 8.96372 99.2366 8.98031 97.8233 7.59387 97.8067 5.86702 97.8065 5.84372 97.8065 5.82043 97.8068 5.79713 97.8276 4.03744 99.271 2.62785 101.031 2.64872 102.283 2.66358 103.409 3.40982 103.912 4.55631Z" fill="#FFFFFF" transform="matrix(1 0 0 1.00704 71 91.2262)"/><path d="M105.361 0 106.473 0 106.473 8.87438 105.361 8.87438Z" fill="#FFFFFF" transform="matrix(1 0 0 1.00704 71 91.2262)"/><path d="M112.746 8.87438 112.746 5.4497C112.72 4.46325 111.899 3.68525 110.912 3.71199 110.861 3.71336 110.811 3.71686 110.761 3.72247 109.664 3.71939 108.773 4.60573 108.77 5.7022 108.77 5.75374 108.772 5.80528 108.776 5.85669 108.726 6.95204 109.575 7.88 110.67 7.92934 110.7 7.93072 110.73 7.93138 110.761 7.93135 111.371 7.90363 111.935 7.59602 112.29 7.09752L112.29 8.41776C111.829 8.80487 111.243 9.01282 110.642 9.00343 108.953 8.96248 107.618 7.56085 107.66 5.87279 107.66 5.83763 107.662 5.80247 107.664 5.76735 107.59 4.12431 108.862 2.73262 110.506 2.65892 110.604 2.6545 110.702 2.65498 110.801 2.66033 112.333 2.50555 113.701 3.6226 113.856 5.15534 113.869 5.2861 113.873 5.41764 113.868 5.54897L113.868 8.87438Z" fill="#FFFFFF" transform="matrix(1 0 0 1.00704 71 91.2262)"/><path d="M124.43 0 124.43 5.64823C124.584 7.3408 123.336 8.83734 121.644 8.99085 121.55 8.99931 121.456 9.0035 121.363 9.00343 119.646 9.02412 118.239 7.64994 118.218 5.9341 118.217 5.84867 118.22 5.76323 118.226 5.67801 118.226 4.03333 119.559 2.70004 121.204 2.70004 121.805 2.68911 122.398 2.83995 122.921 3.13681L122.921 4.25851C122.47 3.942 121.941 3.75646 121.392 3.72247 120.295 3.72082 119.406 4.60832 119.404 5.70479 119.404 5.74221 119.405 5.77962 119.407 5.81699 119.336 6.91113 120.165 7.85588 121.259 7.92715 121.303 7.93005 121.348 7.93144 121.392 7.93135 122.464 7.93135 123.378 7.1273 123.378 5.4497L123.378 0Z" fill="#FFFFFF" transform="matrix(1 0 0 1.00704 71 91.2262)"/><path d="M127.309 6.86921 126.852 5.95596 129.83 4.27836C129.487 3.87837 128.976 3.66172 128.45 3.69269 127.353 3.69072 126.463 4.57798 126.461 5.67443 126.461 5.71536 126.463 5.75628 126.465 5.79713 126.399 6.89162 127.233 7.83221 128.327 7.898 128.369 7.90045 128.409 7.90164 128.45 7.90157 129.761 7.90157 130.257 7.11737 130.436 6.00559L131.567 6.14457C131.44 7.78237 130.042 9.02729 128.401 8.96372 126.679 8.98587 125.266 7.60843 125.244 5.88713 125.243 5.85713 125.244 5.82713 125.244 5.79713 125.251 4.04281 126.679 2.62662 128.433 2.63397 129.698 2.63927 130.84 3.39433 131.339 4.55631Z" fill="#FFFFFF" transform="matrix(1 0 0 1.00704 71 91.2262)"/><path d="M77.7551 21.0841C78.8515 21.0861 79.742 20.1988 79.7439 19.1024 79.744 19.0615 79.7429 19.0206 79.7404 18.9797 79.7404 17.8832 78.8515 16.9943 77.7551 16.9943 76.6586 16.9943 75.7697 17.8832 75.7697 18.9797 75.7039 20.0742 76.5378 21.0147 77.6324 21.0805 77.6733 21.083 77.7142 21.0842 77.7551 21.0841M77.7551 15.8131C79.5039 15.8076 80.9261 17.2209 80.9316 18.9697 80.937 20.7186 79.5238 22.1407 77.7749 22.1462 76.026 22.1517 74.6039 20.7385 74.5984 18.9896 74.5984 18.9863 74.5984 18.9829 74.5984 18.9797 74.5708 17.2584 75.9438 15.8408 77.665 15.8132 77.6951 15.8128 77.7251 15.8127 77.7551 15.8131" fill="#FFFFFF" transform="matrix(1 0 0 1.00704 71 91.2262)"/><path d="M81.8349 15.9421 82.897 15.9421 82.897 16.637 82.897 16.637C83.2451 16.0716 83.8836 15.7522 84.5448 15.8131L84.793 15.8131 84.793 16.8752 84.6243 16.8752C83.5522 16.8752 82.9169 17.5304 82.9169 19.1782L82.9169 22.0172 81.8349 22.0172Z" fill="#FFFFFF" transform="matrix(1 0 0 1.00704 71 91.2262)"/><path d="M89.7762 21.7393C89.3356 21.9788 88.8474 22.1179 88.3467 22.1462 86.6589 22.1957 85.2506 20.8675 85.2012 19.1797 85.2 19.1395 85.1996 19.0993 85.2 19.0591 85.1063 17.3621 86.406 15.9106 88.1029 15.8168 88.1841 15.8124 88.2654 15.8111 88.3467 15.8131 89.9915 15.8131 91.3247 17.1463 91.3247 18.7911L91.3247 21.5407C91.5432 23.1709 90.3989 24.6695 88.7688 24.888 88.5631 24.9155 88.3551 24.9215 88.1482 24.9058 87.4725 24.8933 86.8027 24.7761 86.1629 24.5584L86.4309 23.5657C86.978 23.7385 87.5453 23.8386 88.1184 23.8635 89.1399 24.0014 90.0796 23.2852 90.2176 22.2639 90.2322 22.1558 90.2373 22.0467 90.2328 21.9378L90.2328 19.0789C90.437 18.0017 89.7293 16.9628 88.652 16.7586 87.5747 16.5543 86.5358 17.2621 86.3316 18.3393 86.2853 18.5837 86.2853 18.8345 86.3316 19.0789 86.297 20.142 87.1306 21.0318 88.1937 21.0664 88.2513 21.0682 88.309 21.0675 88.3666 21.0642 88.8758 21.0294 89.3661 20.858 89.7861 20.5679Z" fill="#FFFFFF" transform="matrix(1 0 0 1.00704 71 91.2262)"/><path d="M97.2807 22.0172 97.2807 18.6024C97.254 17.616 96.4325 16.838 95.4461 16.8647 95.3957 16.8661 95.3455 16.8696 95.2953 16.8752 94.1989 16.8721 93.3075 17.7585 93.3045 18.855 93.3043 18.9065 93.3062 18.958 93.31 19.0094 93.2607 20.1048 94.1086 21.0328 95.204 21.0821 95.2344 21.0835 95.2649 21.0841 95.2953 21.0841 95.9061 21.0564 96.4701 20.7488 96.8241 20.2503L96.8241 21.5606C96.3654 21.9517 95.7788 22.1602 95.1762 22.1462 93.4936 22.1108 92.1581 20.7179 92.1937 19.0352 92.1945 18.9968 92.196 18.9584 92.1982 18.9201 92.1256 17.277 93.3987 15.8861 95.0418 15.8135 95.1263 15.8097 95.2109 15.8096 95.2953 15.8131 96.8281 15.6583 98.1961 16.7754 98.3509 18.3081 98.3641 18.4389 98.368 18.5704 98.3627 18.7017L98.3627 22.0172Z" fill="#FFFFFF" transform="matrix(1 0 0 1.00704 71 91.2262)"/><path d="M99.4645 22.0172 99.4645 18.4734C99.3762 17.0398 100.466 15.8057 101.9 15.717 103.333 15.6283 104.568 16.7186 104.656 18.1522 104.663 18.2592 104.663 18.3664 104.656 18.4734L104.656 22.0172 103.544 22.0172 103.544 18.4734C103.544 17.6511 102.877 16.9844 102.055 16.9844 101.233 16.9844 100.566 17.6511 100.566 18.4734L100.566 22.0172Z" fill="#FFFFFF" transform="matrix(1 0 0 1.00704 71 91.2262)"/><path d="M106.433 15.9421 107.555 15.9421 107.555 22.0172 106.433 22.0172ZM106.989 13.9568C107.362 13.9513 107.668 14.249 107.674 14.6218 107.679 14.9945 107.382 15.3012 107.009 15.3067 106.636 15.3122 106.33 15.0144 106.324 14.6416 106.324 14.6384 106.324 14.6351 106.324 14.6318 106.313 14.2702 106.597 13.968 106.959 13.957 106.969 13.9567 106.979 13.9566 106.989 13.9568" fill="#FFFFFF" transform="matrix(1 0 0 1.00704 71 91.2262)"/><path d="M113.372 22.0172 109.897 22.0172C109.341 22.0172 108.984 21.7393 108.984 21.2231 108.984 20.7069 109.203 20.5381 109.59 20.0418L112.071 17.0043 109.193 17.0043 109.193 15.9421 112.171 15.9421C112.935 15.9421 113.342 16.2498 113.342 16.7462 113.358 16.9845 113.287 17.2207 113.143 17.4113L110.185 20.9551 113.332 20.9551Z" fill="#FFFFFF" transform="matrix(1 0 0 1.00704 71 91.2262)"/><path d="M119.119 22.0172 119.119 18.6024C119.092 17.616 118.271 16.838 117.285 16.8647 117.234 16.8661 117.184 16.8696 117.134 16.8752 116.037 16.8721 115.146 17.7585 115.143 18.855 115.143 18.9065 115.145 18.958 115.149 19.0094 115.099 20.1048 115.948 21.0328 117.043 21.0821 117.073 21.0835 117.103 21.0841 117.134 21.0841 117.744 21.0564 118.308 20.7488 118.663 20.2503L118.663 21.5606C118.204 21.9517 117.617 22.1602 117.015 22.1462 115.332 22.1108 113.997 20.7179 114.032 19.0352 114.033 18.9968 114.035 18.9584 114.037 18.9201 113.964 17.277 115.237 15.8861 116.881 15.8135 116.965 15.8097 117.049 15.8096 117.134 15.8131 118.667 15.6583 120.034 16.7754 120.189 18.3081 120.202 18.4389 120.206 18.5704 120.201 18.7017L120.201 22.0172Z" fill="#FFFFFF" transform="matrix(1 0 0 1.00704 71 91.2262)"/><path d="M125.393 17.0043 124.539 17.0043C123.442 17.0043 122.554 17.8931 122.554 18.9896 122.554 20.0861 123.442 20.9749 124.539 20.9749L125.393 20.9749 125.393 22.0371 124.331 22.0371C122.653 22.0371 121.293 20.6771 121.293 18.9995 121.293 17.3219 122.653 15.962 124.331 15.962L125.393 15.962Z" fill="#FFFFFF" transform="matrix(1 0 0 1.00704 71 91.2262)"/><path d="M126.872 15.9421 127.984 15.9421 127.984 22.0172 126.872 22.0172ZM127.428 13.9568C127.801 13.9568 128.103 14.259 128.103 14.6318 128.103 15.0047 127.801 15.3068 127.428 15.3068 127.055 15.3068 126.753 15.0047 126.753 14.6318 126.753 14.259 127.055 13.9568 127.428 13.9568" fill="#FFFFFF" transform="matrix(1 0 0 1.00704 71 91.2262)"/><path d="M133.016 13.4009 134.386 13.4009 132.738 15.1976 131.875 15.1976ZM132.709 21.0841C133.806 21.0861 134.696 20.1988 134.698 19.1024 134.698 19.0615 134.696 19.0206 134.694 18.9797 134.694 17.8832 133.806 16.9943 132.709 16.9943 131.612 16.9943 130.723 17.8832 130.723 18.9797 130.658 20.0742 131.492 21.0147 132.586 21.0805 132.627 21.083 132.668 21.0842 132.709 21.0841M132.709 15.8131C134.458 15.8076 135.879 17.2209 135.885 18.9697 135.891 20.7186 134.478 22.1407 132.729 22.1462 130.979 22.1517 129.558 20.7385 129.552 18.9896 129.552 18.9863 129.552 18.9829 129.552 18.9797 129.524 17.2584 130.897 15.8408 132.618 15.8132 132.649 15.8128 132.679 15.8127 132.709 15.8131" fill="#FFFFFF" transform="matrix(1 0 0 1.00704 71 91.2262)"/><path d="M136.808 22.0172 136.808 18.4734C136.72 17.0398 137.81 15.8057 139.243 15.717 140.677 15.6283 141.912 16.7186 142 18.1522 142.007 18.2592 142.007 18.3664 142 18.4734L142 22.0172 140.888 22.0172 140.888 18.4734C140.888 17.6511 140.221 16.9844 139.399 16.9844 138.577 16.9844 137.91 17.6511 137.91 18.4734L137.91 22.0172Z" fill="#FFFFFF" transform="matrix(1 0 0 1.00704 71 91.2262)"/><path d="M75.4422 29.0849 76.5539 29.0849 76.5539 35.1699 75.4422 35.1699ZM75.998 27.0996C76.3709 27.0996 76.673 27.4018 76.673 27.7746 76.673 28.1475 76.3709 28.4496 75.998 28.4496 75.6252 28.4496 75.323 28.1475 75.323 27.7746 75.3119 27.413 75.596 27.1107 75.9577 27.0996 75.9711 27.0992 75.9846 27.0992 75.998 27.0996" fill="#FFFFFF" transform="matrix(1 0 0 1.00704 71 91.2262)"/><path d="M78.3209 35.1699 78.3209 31.6261C78.3209 30.1898 79.4853 29.0254 80.9216 29.0254 82.358 29.0254 83.5224 30.1898 83.5224 31.6261L83.5224 35.1699 82.3908 35.1699 82.3908 31.6261C82.3908 30.8038 81.7241 30.1372 80.9018 30.1372 80.0795 30.1372 79.4128 30.8038 79.4128 31.6261L79.4128 35.1699Z" fill="#FFFFFF" transform="matrix(1 0 0 1.00704 71 91.2262)"/><path d="M90.6299 26.2956 90.6299 31.9537C90.7779 33.6468 89.5254 35.1393 87.8323 35.2873 87.7426 35.2951 87.6526 35.2991 87.5625 35.299 85.8416 35.3413 84.4122 33.9804 84.37 32.2595 84.3677 32.1642 84.3696 32.0688 84.3761 31.9736 84.3759 30.3481 85.6792 29.0227 87.3044 28.9956 87.9087 28.9858 88.5047 29.1365 89.0317 29.4324L89.0317 30.5938C88.5761 30.2819 88.0442 30.0999 87.493 30.0677 86.4301 30.0311 85.5388 30.8631 85.5022 31.926 85.4996 32.0015 85.5015 32.077 85.5077 32.1523 85.431 33.2461 86.2554 34.195 87.3492 34.2717 87.397 34.2751 87.4451 34.2766 87.493 34.2765 88.5552 34.2765 89.4784 33.4626 89.4784 31.785L89.4784 26.2956Z" fill="#FFFFFF" transform="matrix(1 0 0 1.00704 71 91.2262)"/><path d="M96.9035 29.0849 96.9035 32.6387C96.9035 34.075 95.7391 35.2394 94.3027 35.2394 92.8663 35.2394 91.7019 34.075 91.7019 32.6387L91.7019 29.0849 92.8236 29.0849 92.8236 32.6387C92.8236 33.461 93.4903 34.1277 94.3126 34.1277 95.1349 34.1277 95.8016 33.461 95.8016 32.6387L95.8016 29.0849Z" fill="#FFFFFF" transform="matrix(1 0 0 1.00704 71 91.2262)"/><path d="M97.8266 34.1078 100.944 34.1078C101.47 34.1078 101.668 33.8993 101.668 33.5221 101.668 32.4103 97.8266 32.8372 97.8266 30.7327 97.8266 29.6607 98.5811 29.0849 99.9112 29.0849L102.532 29.0849 102.532 30.1471 99.7127 30.1471C99.1767 30.1471 99.0178 30.3059 98.998 30.6831 98.998 31.7353 102.84 31.2886 102.84 33.4725 102.871 34.3875 102.155 35.1548 101.239 35.1863 101.141 35.1897 101.042 35.1842 100.944 35.1699L97.8266 35.1699Z" fill="#FFFFFF" transform="matrix(1 0 0 1.00704 71 91.2262)"/><path d="M107.148 30.1471 104.964 30.1471 104.964 33.3434C104.964 33.9192 105.232 34.1078 105.798 34.1078L107.148 34.1078 107.148 35.1699 105.649 35.1699C104.69 35.2128 103.879 34.4706 103.836 33.5122 103.831 33.4027 103.836 33.293 103.852 33.1846L103.852 27.5662 104.964 27.5662 104.964 29.0849 107.148 29.0849Z" fill="#FFFFFF" transform="matrix(1 0 0 1.00704 71 91.2262)"/><path d="M107.882 29.0849 108.944 29.0849 108.944 29.7798 108.944 29.7798C109.293 29.2144 109.931 28.895 110.592 28.9559L110.84 28.9559 110.84 30.028 110.672 30.028C109.6 30.028 108.964 30.6831 108.964 32.3309L108.964 35.1699 107.853 35.1699Z" fill="#FFFFFF" transform="matrix(1 0 0 1.00704 71 91.2262)"/><path d="M112.051 29.0849 113.163 29.0849 113.163 35.1699 112.051 35.1699ZM112.607 27.0996C112.981 27.0996 113.282 27.4018 113.282 27.7746 113.282 28.1475 112.981 28.4496 112.607 28.4496 112.234 28.4496 111.932 28.1475 111.932 27.7746 111.921 27.413 112.205 27.1107 112.567 27.0996 112.581 27.0992 112.593 27.0992 112.607 27.0996" fill="#FFFFFF" transform="matrix(1 0 0 1.00704 71 91.2262)"/><path d="M119.794 35.1699 119.794 31.7651C119.762 30.7788 118.937 30.0054 117.95 30.0376 117.903 30.0392 117.856 30.0426 117.809 30.0478 116.646 30.0478 115.704 30.99 115.704 32.1523 115.704 33.3145 116.646 34.2567 117.809 34.2567 118.421 34.2266 118.986 33.9152 119.338 33.4129L119.338 34.7431C118.877 35.1302 118.291 35.3382 117.69 35.3288 116.001 35.2879 114.666 33.8862 114.708 32.1981 114.708 32.163 114.71 32.1278 114.712 32.0927 114.638 30.4496 115.91 29.0579 117.554 28.9843 117.652 28.9798 117.75 28.9803 117.849 28.9857 119.381 28.8309 120.749 29.948 120.904 31.4807 120.917 31.6115 120.921 31.743 120.916 31.8743L120.916 35.1997Z" fill="#FFFFFF" transform="matrix(1 0 0 1.00704 71 91.2262)"/><path d="M122.266 26.2956 123.378 26.2956 123.378 35.1699 122.266 35.1699Z" fill="#FFFFFF" transform="matrix(1 0 0 1.00704 71 91.2262)"/><path d="M30.3655 17.5403C30.3655 23.397 34.2666 28.4596 40.8281 28.4596 47.3896 28.4596 51.2907 23.4069 51.2907 17.5403 51.2907 11.6737 47.3797 6.62104 40.8281 6.62104 34.2765 6.62104 30.3655 11.6737 30.3655 17.5403M58.0607 17.5403C58.0607 27.05 50.9135 35.0111 40.8281 35.0111 30.7427 35.0111 23.5955 27.0698 23.5955 17.5403 23.5955 8.01077 30.7725 0.0694862 40.8281 0.0694862 50.8837 0.0694862 58.0607 8.01077 58.0607 17.5403" fill="#FFFFFF" transform="matrix(1 0 0 1.00704 71 91.2262)"/><path d="M60.5324 7.09752 67.9376 7.09752 67.9376 35.0607 60.5324 35.0607Z" fill="#FFFFFF" transform="matrix(1 0 0 1.00704 71 91.2262)"/><path d="M60.5324 0.049633 67.9376 0.049633 67.9376 5.90633 60.5324 5.90633Z" fill="#FFFFFF" transform="matrix(1 0 0 1.00704 71 91.2262)"/><path d="M47.1712 35.0409C50.8396 33.7836 53.9835 31.3383 56.1051 28.0923L59.4703 28.0923 59.4703 35.0409 47.1712 35.0409" fill="#FFFFFF" transform="matrix(1 0 0 1.00704 71 91.2262)"/><path d="M34.346 35.0508C30.6708 33.7747 27.5267 31.3083 25.4121 28.0426L16.5675 28.0426C12.1845 28.2369 8.3479 25.1249 7.63355 20.7962L21.0642 20.7962 21.0642 14.2844 7.60378 14.2844C8.31365 9.95171 12.1515 6.83447 16.5377 7.02803L21.0345 7.02803 21.0345 0 17.2127 0C5.20154 0 0 8.93394 0 17.5403 0 26.1467 5.20154 35.0508 17.2127 35.0508L34.346 35.0508" fill="#FFFFFF" transform="matrix(1 0 0 1.00704 71 91.2262)"/></g></svg>